<svg xmlns="http://www.w3.org/2000/svg" viewBox="0 0 100 100"><defs><style>.cls-1{fill:#28aae2;}.cls-2{fill:#c30f23;}.cls-3{fill:#fff;stroke:#fff;stroke-miterlimit:10;}</style></defs><g id="Layer_2" data-name="Layer 2"><g id="レイヤー_1" data-name="レイヤー 1"><circle class="cls-1" cx="50" cy="50" r="50"/><ellipse class="cls-2" cx="38.37" cy="71.04" rx="0.05" ry="0.01"/><path class="cls-3" d="M82.54,31.93a9.26,9.26,0,0,1-5,.75v.07c-.09-.31-.2-.61-.32-.91l.05.09s3.33-1.29,4.46-6.12c0,0-3.49,2.47-6.87,2.15l0,.05A15.24,15.24,0,0,0,63,22.78C54.79,22.9,48.21,29.27,48.33,37a12.51,12.51,0,0,0,.32,2.68C38.1,37.88,30.05,34.51,22.91,26a15.29,15.29,0,0,0-1.12,8.88,14.63,14.63,0,0,0,9.69,11.62l-.1,0,.06,0h-.08c-.36.1-.73.19-1.11.26a11.73,11.73,0,0,1-11.11-4.51,15.22,15.22,0,0,0,1.7,6.9,14.63,14.63,0,0,0,12.71,8.2c-.17.11-.37.21-.55.32l.2,0-.27.06c-.16.09-.31.2-.47.28C29.7,59.4,25.87,58,23,57c.07,6.2,6.65,11.09,11.92,11.89C30.79,72,26,72.54,19.73,70.24,24.91,75,31.41,77.39,38.66,78A30.91,30.91,0,0,0,50,76.4h0C66.41,71.78,78.38,57.2,78.38,39.93c0-.94,0-1.87-.12-2.79l-.09.06c0-.17,0-.34,0-.51l.07.45A7,7,0,0,0,82.54,31.93Zm-33.75,8,0-.06a.14.14,0,0,1,0,.07Z"/></g></g></svg>