<?xml version="1.0" encoding="utf-8"?>
<!-- Generator: Adobe Illustrator 25.2.1, SVG Export Plug-In . SVG Version: 6.00 Build 0)  -->
<svg version="1.1" id="Layer_1" xmlns="http://www.w3.org/2000/svg" xmlns:xlink="http://www.w3.org/1999/xlink" x="0px" y="0px"
	 viewBox="0 0 595.3 841.9" style="enable-background:new 0 0 595.3 841.9;" xml:space="preserve">
<style type="text/css">
	.st0{clip-path:url(#SVGID_2_);}
	.st1{clip-path:url(#SVGID_4_);}
	.st2{fill:#FFFFFF;}
</style>
<g>
	<g>
		<defs>
			<circle id="SVGID_1_" cx="298.7" cy="434.3" r="221"/>
		</defs>
		<clipPath id="SVGID_2_">
			<use xlink:href="#SVGID_1_"  style="overflow:visible;"/>
		</clipPath>
		<g class="st0">
			<g>
				<defs>
					<rect id="SVGID_3_" x="72.6" y="208.3" width="452.1" height="452.1"/>
				</defs>
				<clipPath id="SVGID_4_">
					<use xlink:href="#SVGID_3_"  style="overflow:visible;"/>
				</clipPath>
				<g class="st1">
					<defs>
						<rect id="SVGID_5_" x="72.6" y="208.3" width="452.1" height="452.1"/>
					</defs>
					<clipPath id="SVGID_6_">
						<use xlink:href="#SVGID_5_"  style="overflow:visible;"/>
					</clipPath>
					<g style="clip-path:url(#SVGID_6_);">
						
							<image style="overflow:visible;" width="943" height="943" xlink:href="822CBE1C50E74B55.jpg"  transform="matrix(0.48 0 0 0.48 72.48 207.84)">
						</image>
					</g>
				</g>
			</g>
		</g>
	</g>
</g>
<g>
	<path class="st2" d="M369.9,315.3H226.1c-27.9,0-50.6,22.6-50.6,50.6v143.8c0,27.9,22.6,50.6,50.6,50.6h143.8
		c27.9,0,50.6-22.6,50.6-50.6V365.8C420.5,337.9,397.8,315.3,369.9,315.3z M350.2,345.7h37.3c0.6,0.5,1.1,1,1.6,1.5v37.4h-38.9
		V345.7z M297.1,396.4c23,0,41.7,18.7,41.7,41.7s-18.7,41.7-41.7,41.7c-23,0-41.7-18.7-41.7-41.7S274.1,396.4,297.1,396.4z
		 M394.7,514.4c0,11.1-9,20.1-20.1,20.1H221.4c-11.1,0-20.1-9-20.1-20.1V413.3H234c-2.5,7.1-3.9,14.6-3.9,22.6
		c0,37.3,30.2,67.5,67.5,67.5c37.3,0,67.5-30.2,67.5-67.5c0-7.9-1.4-15.5-3.9-22.6h33.5V514.4z"/>
</g>
</svg>
