<?xml version="1.0" encoding="utf-8"?>
<!-- Generator: Adobe Illustrator 25.2.1, SVG Export Plug-In . SVG Version: 6.00 Build 0)  -->
<svg version="1.1" id="レイヤー_1" xmlns="http://www.w3.org/2000/svg" xmlns:xlink="http://www.w3.org/1999/xlink" x="0px"
	 y="0px" viewBox="0 0 841.9 595.3" style="enable-background:new 0 0 841.9 595.3;" xml:space="preserve">
<style type="text/css">
	.st0{fill:#FFFFFF;}
	.st1{fill:#3D8C39;}
	.st2{fill:#F5CA44;}
	.st3{stroke:#FFFFFF;stroke-width:5;stroke-miterlimit:10;}
	.st4{stroke:#FFFFFF;stroke-width:4;stroke-miterlimit:10;}
	.st5{fill:#EAE34C;stroke:#FFFFFF;stroke-width:2;stroke-miterlimit:10;}
	.st6{fill:none;}
	.st7{fill:#F5BF3D;}
</style>
<g id="XMLID_391_">
	<path id="XMLID_441_" class="st0" d="M420.9,580.8c-75.6,0-146.7-29.5-200.2-82.9c-53.5-53.5-82.9-124.6-82.9-200.2
		s29.5-146.7,82.9-200.2C274.2,44,345.3,14.5,420.9,14.5S567.7,44,621.1,97.4c53.5,53.5,82.9,124.6,82.9,200.2
		s-29.5,146.7-82.9,200.2C567.7,551.3,496.6,580.8,420.9,580.8z"/>
	<path id="XMLID_438_" class="st1" d="M420.9,22c37.2,0,73.3,7.3,107.3,21.7c32.8,13.9,62.3,33.8,87.6,59.1
		c25.3,25.3,45.2,54.8,59.1,87.6c14.4,34,21.7,70.1,21.7,107.3s-7.3,73.3-21.7,107.3c-13.9,32.8-33.8,62.3-59.1,87.6
		c-25.3,25.3-54.8,45.2-87.6,59.1c-34,14.4-70.1,21.7-107.3,21.7s-73.3-7.3-107.3-21.7c-32.8-13.9-62.3-33.8-87.6-59.1
		s-45.2-54.8-59.1-87.6c-14.4-34-21.7-70.1-21.7-107.3s7.3-73.3,21.7-107.3c13.9-32.8,33.8-62.3,59.1-87.6s54.8-45.2,87.6-59.1
		C347.6,29.3,383.7,22,420.9,22 M420.9,7C260.4,7,130.3,137.1,130.3,297.6s130.1,290.6,290.6,290.6s290.6-130.1,290.6-290.6
		S581.5,7,420.9,7L420.9,7z"/>
</g>
<circle id="XMLID_392_" class="st1" cx="420.9" cy="297.6" r="270.8"/>
<g id="XMLID_393_">
	<g id="XMLID_394_">
		
			<ellipse id="XMLID_427_" transform="matrix(0.7071 -0.7071 0.7071 0.7071 -87.1713 384.8297)" class="st2" cx="420.9" cy="297.6" rx="173.6" ry="173.6"/>
		<path id="XMLID_424_" class="st0" d="M420.9,126.6c45.7,0,88.7,17.8,121,50.1s50.1,75.3,50.1,121s-17.8,88.7-50.1,121
			s-75.3,50.1-121,50.1s-88.7-17.8-121-50.1s-50.1-75.3-50.1-121c0-45.7,17.8-88.7,50.1-121S375.2,126.6,420.9,126.6 M420.9,121.6
			c-97.2,0-176.1,78.8-176.1,176.1s78.8,176.1,176.1,176.1S597,394.9,597,297.6S518.2,121.6,420.9,121.6L420.9,121.6z"/>
	</g>
	<g id="XMLID_395_">
		<circle id="XMLID_396_" class="st3" cx="420.9" cy="297.6" r="146.4"/>
		<path id="XMLID_397_" class="st4" d="M538.3,311.6c27.6,85.4-45.4,134.8-117.3,132.4c-74.7-2.6-146.5-51.7-117-132.4
			c25-68.7,62.6-132.4,117-132.4S515.8,242.1,538.3,311.6z"/>
		<path id="XMLID_398_" d="M522.7,231.5c40.4,58-35.3,115.6-105.7,116.6c-55.5,0.8-127.9-60.7-105.7-116.6
			c13.5-34,68.3-66.2,109.7-66.2S501.8,201.5,522.7,231.5z"/>
	</g>
	<ellipse id="XMLID_399_" class="st0" cx="366.7" cy="241.7" rx="12" ry="12.5"/>
	<ellipse id="XMLID_400_" class="st0" cx="476.6" cy="241.7" rx="12" ry="12.5"/>
	<polygon id="XMLID_401_" class="st5" points="387.2,203.2 324.8,221 278.9,212.1 321.6,207.4 297.2,199.1 333.1,199.1 320.2,191.5 
			"/>
	<polygon id="XMLID_402_" class="st5" points="453.9,203.2 516.4,221 562.2,212.1 519.5,207.4 544,199.1 508.1,199.1 521,191.5 	"/>
	<circle id="XMLID_403_" class="st0" cx="420.9" cy="359.6" r="84.4"/>
	<path id="XMLID_404_" class="st5" d="M458.6,261.3c0,7.2-20.7,13.1-34.5,13.1c-13.8,0-40.8-5.9-40.8-13.1c0-7.2,27-13.1,40.8-13.1
		C437.9,248.2,458.6,254.1,458.6,261.3z"/>
</g>
<rect id="XMLID_405_" x="170.6" y="23" class="st6" width="532.3" height="321.9"/>
<circle id="XMLID_407_" class="st6" cx="420.9" cy="297.6" r="176.1"/>
<circle id="XMLID_410_" class="st6" cx="420.9" cy="297.6" r="176.1"/>
<path id="XMLID_x5F_412_x5F__1_" class="st6" d="M222,305.6c0-109.9,89.1-199,199-199s199,89.1,199,199s-89.1,199-199,199
	S222,415.5,222,305.6z"/>
<text id="XMLID_413_"><textPath  xlink:href="#XMLID_x5F_412_x5F__1_" startOffset="100.2727%">
<tspan  class="st0" style="font-family:'CooperBlackStd'; font-size:87px; letter-spacing:11;">PENGUIN</tspan></textPath>
</text>
<path id="XMLID_x5F_414_x5F__1_" class="st6" d="M589.3,297.6c0,93-75.4,168.3-168.3,168.3s-168.3-75.4-168.3-168.3
	S328,129.3,420.9,129.3S589.3,204.7,589.3,297.6z"/>
<text id="XMLID_415_"><textPath  xlink:href="#XMLID_x5F_414_x5F__1_" startOffset="33.3333%">
</textPath>
</text>
<path id="XMLID_x5F_416_x5F_" class="st6" d="M674.6,310.9C681.9,170.9,574.3,51.4,434.2,44S174.7,144.3,167.3,284.3
	s100.3,259.6,240.3,266.9S667.2,451,674.6,310.9z"/>
<text id="XMLID_417_"><textPath  xlink:href="#XMLID_x5F_416_x5F_" startOffset="-2366.5%">
<tspan  class="st0" style="font-family:'CooperBlackStd'; font-size:87px; letter-spacing:11;">Café</tspan></textPath>
</text>
<path id="XMLID_423_" class="st7" d="M592.4,425.6l-17.4-7.7l-0.5,20.2l-25.3-3.2l-2.5-0.8c-0.1,0.9-0.2,1.8-0.2,2.7
	c-0.4,8.3,1.9,16.8,7,24.1c12.4,17.6,36.7,21.9,54.3,9.6c17.6-12.4,21.9-36.7,9.6-54.3c-5-7.2-12.1-12.2-19.8-14.7L592.4,425.6z"/>
<path id="XMLID_419_" class="st7" d="M246.7,425.6l17.4-7.7l0.5,20.2l25.3-3.2l2.5-0.8c0.1,0.9,0.2,1.8,0.2,2.7
	c0.4,8.3-1.9,16.8-7,24.1c-12.4,17.6-36.7,21.9-54.3,9.6c-17.6-12.4-21.9-36.7-9.6-54.3c5-7.2,12.1-12.2,19.8-14.7L246.7,425.6z"/>
</svg>
