<?xml version="1.0" encoding="utf-8"?>
<!-- Generator: Adobe Illustrator 25.2.1, SVG Export Plug-In . SVG Version: 6.00 Build 0)  -->
<svg version="1.1" id="Layer_1" xmlns="http://www.w3.org/2000/svg" xmlns:xlink="http://www.w3.org/1999/xlink" x="0px" y="0px"
	 viewBox="0 0 100 100" style="enable-background:new 0 0 100 100;" xml:space="preserve">
<style type="text/css">
	.st0{fill:#0099CC;stroke:#0099CC;stroke-miterlimit:10;}
	.st1{fill:#FFFFFF;stroke:#FFFFFF;stroke-miterlimit:10;}
</style>
<circle class="st0" cx="50.2" cy="49.9" r="48.8"/>
<g id="Layer_2_1_">
	<g id="レイヤー_1">
		<path class="st1" d="M0,50"/>
		<path class="st1" d="M82.5,31.9c-1.6,0.7-3.3,1-5,0.8v0.1c-0.1-0.3-0.2-0.6-0.3-0.9l0.1,0.1c0,0,3.3-1.3,4.5-6.1
			c0,0-3.5,2.5-6.9,2.1v0c-3-3.4-7.3-5.3-11.9-5.2c-8.2,0.1-14.8,6.5-14.7,14.2c0,0.9,0.1,1.8,0.3,2.7C38.1,37.9,30,34.5,22.9,26
			c-1.3,2.8-1.6,5.9-1.1,8.9c0.8,5.4,4.6,9.8,9.7,11.6h-0.1h0.1h-0.1c-0.4,0.1-0.7,0.2-1.1,0.3c-4.2,0.6-8.5-1.1-11.1-4.5
			c0,2.4,0.6,4.8,1.7,6.9c2.4,4.9,7.3,8,12.7,8.2c-0.2,0.1-0.4,0.2-0.5,0.3h0.2l-0.3,0.1c-0.2,0.1-0.3,0.2-0.5,0.3
			c-2.8,1.4-6.6,0-9.5-1c0.1,6.2,6.6,11.1,11.9,11.9c-4.1,3.1-8.9,3.7-15.2,1.3c5.2,4.8,11.7,7.2,18.9,7.8c3.8,0.2,7.7-0.4,11.3-1.6
			l0,0c16.4-4.6,28.4-19.2,28.4-36.5c0-0.9,0-1.9-0.1-2.8l-0.1,0.1c0-0.2,0-0.3,0-0.5l0.1,0.5C80.5,36.3,82.1,34.3,82.5,31.9z
			 M48.8,39.9L48.8,39.9C48.8,39.9,48.8,39.9,48.8,39.9L48.8,39.9z"/>
	</g>
</g>
</svg>
