<?xml version="1.0" encoding="utf-8"?>
<!-- Generator: Adobe Illustrator 25.1.0, SVG Export Plug-In . SVG Version: 6.00 Build 0)  -->
<svg version="1.1" id="Layer_1" xmlns="http://www.w3.org/2000/svg" xmlns:xlink="http://www.w3.org/1999/xlink" x="0px" y="0px"
	 viewBox="0 0 518 518" style="enable-background:new 0 0 518 518;" xml:space="preserve">
<style type="text/css">
	.st0{fill:#EDB230;}
	.st1{fill:none;stroke:#000000;stroke-width:2;stroke-miterlimit:10;}
	.st2{fill:#FFFFFF;stroke:#000000;stroke-width:2;stroke-miterlimit:10;}
	.st3{fill:#CC6699;}
	.st4{fill:#B3CEDD;stroke:#000000;stroke-width:2;stroke-miterlimit:10;}
	.st5{fill:none;}
</style>
<g>
	
		<image style="overflow:visible;opacity:0.8;" width="444" height="444" xlink:href="D8F2C8B6BB892A9D.png"  transform="matrix(1 0 0 1 33 40)">
	</image>
	<g>
		<circle class="st0" cx="259" cy="259" r="205.3"/>
		<circle class="st1" cx="259" cy="259" r="205.3"/>
	</g>
</g>
<path class="st2" d="M338.7,85.1"/>
<g>
	<g>
		<path class="st3" d="M133.5,237.1c-15.4,0-26.9-5.2-32.4-14.6c-1.7-2.8-1.6-6.2,0-9.1c1.7-3,4.8-4.8,8.3-4.8h1.2
			c3.6,0,6.9,2.2,8.5,5.7c2.4,5.1,7.5,7.6,15.7,7.6c10.8,0,14.7-5,14.7-9.8c0-7-8.7-9.2-18.8-11.7c-2.1-0.5-4.3-1.1-6.5-1.7
			c-12.6-3.6-24.3-9-24.3-23.7c0-17.3,17-25,33.9-25c11.2,0,21,3.5,26.8,9.7c2.6,2.7,3.3,6.6,1.8,10c-1.5,3.6-4.9,5.8-8.7,5.8
			c-3.5,0-6.5-1.7-8-4.4c-2.1-3.8-7.1-5.9-13.6-5.9c-5.7,0-11.8,2.2-11.8,8.3c0,6,7.8,7.9,17.8,10.3c2.5,0.6,5.1,1.2,7.8,2
			c11.9,3.4,24.1,8.8,24.1,23.7C169.8,234.4,144.4,237.1,133.5,237.1z"/>
		<path d="M133.8,150.9c10.9,0,20.4,3.4,26.1,9.4c2.7,2.9,2.6,6.5,1.6,9c-1.1,2.5-3.7,5.2-7.8,5.2c-3.1,0-5.8-1.5-7.2-3.9
			c-2.3-4.1-7.6-6.4-14.5-6.4c-7.8,0-12.8,3.7-12.8,9.3c0,6.8,8.6,8.8,18.6,11.2c2.5,0.6,5.1,1.2,7.7,2c11.5,3.3,23.4,8.5,23.4,22.8
			c0,9.3-3.6,16.3-10.7,20.8c-6,3.8-14.5,5.9-24.6,5.9c-20.3,0-28.5-8.8-31.6-14.1c-1.5-2.5-1.5-5.6,0-8.1c1.6-2.7,4.3-4.3,7.4-4.3
			h1.2c3.2,0,6.1,2,7.6,5.2c2.5,5.5,8,8.1,16.6,8.1c9.5,0,15.7-4.2,15.7-10.8c0-7.8-9-10-19.5-12.7c-2.1-0.5-4.3-1.1-6.5-1.7
			c-12.3-3.5-23.6-8.7-23.6-22.8C100.9,158.4,117.4,150.9,133.8,150.9 M133.8,148.9c-16.1,0-34.9,7.3-34.9,26
			c0,15.7,12.8,21.2,25.1,24.7c12.3,3.5,24.6,4.9,24.6,12.5c0,6.4-7,8.8-13.7,8.8c-7.1,0-12.4-1.8-14.8-7c-1.7-3.7-5.3-6.3-9.4-6.3
			h-1.2c-7.9,0-13.2,8.6-9.2,15.5c6.2,10.6,19.2,15.1,33.3,15.1c18.8,0,37.3-7,37.3-28.6c0-15.5-12.5-21.2-24.8-24.7
			c-12.5-3.5-24.8-4.7-24.8-11.3c0-5.6,6-7.3,10.8-7.3c5.1,0,10.5,1.4,12.7,5.4c1.8,3.2,5.3,4.9,8.9,4.9h0c9.1,0,14-10.9,7.7-17.5
			C154.8,152.1,144.2,148.9,133.8,148.9L133.8,148.9z"/>
	</g>
	<g>
		<path class="st3" d="M236.1,234.9c-2.4,0-4.6-1.5-5.4-3.9l-2.2-6.3c-1.1-3.1-4-5.2-7.3-5.2h-20.3c-3.3,0-6.2,2.1-7.3,5.2l-2.2,6.4
			c-0.8,2.3-3,3.8-5.4,3.8h-8.5c-1.9,0-3.6-0.9-4.7-2.5c-1.1-1.6-1.3-3.5-0.7-5.3l26.4-70.7c1.2-3.1,4.2-5.2,7.5-5.2h9.8
			c3.5,0,6.7,2.2,8,5.5l26.3,70.3c0.7,1.8,0.4,3.7-0.7,5.3c-1.1,1.6-2.8,2.5-4.7,2.5H236.1z M211.1,188c-3.4,0-6.3,2.1-7.3,5.3
			l-0.5,1.6c-0.8,2.4-0.4,4.9,1.1,6.9s3.7,3.2,6.2,3.2h1c2.5,0,4.8-1.2,6.2-3.2s1.9-4.6,1.1-6.9l-0.5-1.6
			C217.3,190.1,214.5,188,211.1,188z"/>
		<path d="M216,152.3c3.1,0,5.9,2,7,4.9l26.3,70.3c0.5,1.5,0.4,3-0.5,4.3c-0.9,1.3-2.3,2-3.9,2h-8.8c-2,0-3.8-1.3-4.5-3.2l-2.2-6.3
			c-1.2-3.5-4.5-5.9-8.2-5.9h-20.3c-3.7,0-7,2.3-8.2,5.8l-2.2,6.4c-0.7,1.9-2.4,3.2-4.4,3.2h-8.5c-1.6,0-3-0.7-3.9-2
			c-0.9-1.3-1.1-2.9-0.5-4.3l26.4-70.7c1-2.7,3.7-4.5,6.6-4.5H216 M210.6,206h1c2.8,0,5.4-1.3,7.1-3.6c1.7-2.3,2.1-5.1,1.2-7.8
			l-0.5-1.6c-1.2-3.6-4.4-6-8.3-6c-3.8,0-7.1,2.4-8.3,6l-0.5,1.6c-0.9,2.7-0.4,5.5,1.2,7.8C205.2,204.7,207.7,206,210.6,206
			 M216,150.3h-9.8c-3.8,0-7.1,2.3-8.4,5.8l-26.4,70.7c-1.6,4.4,1.6,9.1,6.3,9.1h8.5c2.8,0,5.4-1.8,6.3-4.5l2.2-6.4
			c0.9-2.7,3.5-4.5,6.3-4.5h20.3c2.9,0,5.4,1.8,6.3,4.5l2.2,6.3c0.9,2.7,3.5,4.5,6.3,4.5h8.8c4.7,0,7.9-4.7,6.3-9.1l-26.3-70.3
			C223.5,152.7,219.9,150.3,216,150.3L216,150.3z M210.6,204c-4.6,0-7.8-4.4-6.4-8.8l0.5-1.6c1-3.1,3.7-4.6,6.4-4.6
			c2.7,0,5.4,1.5,6.4,4.6l0.5,1.6c1.4,4.3-1.8,8.8-6.4,8.8H210.6L210.6,204z"/>
	</g>
	<g>
		<path class="st3" d="M313.2,234.9c-3.4,0-6.6-1.9-8.3-4.9l-26.7-48c-0.2-0.3-0.5-0.5-0.9-0.5H277c-0.6,0-1,0.4-1,1v42.9
			c0,5.2-4.3,9.5-9.5,9.5s-9.5-4.3-9.5-9.5v-64.6c0-5.2,4.3-9.5,9.5-9.5h6.3c3.4,0,6.6,1.9,8.3,4.8l26.7,47.4
			c0.2,0.3,0.5,0.5,0.9,0.5h0.2c0.6,0,1-0.4,1-1v-42.3c0-5.2,4.3-9.5,9.5-9.5s9.5,4.3,9.5,9.5v64.6c0,5.2-4.3,9.5-9.5,9.5H313.2z"/>
		<path d="M319.4,152.3c4.7,0,8.5,3.8,8.5,8.5v64.6c0,4.7-3.8,8.5-8.5,8.5h-6.2c-3.1,0-5.9-1.7-7.4-4.4l-26.7-48c-0.4-0.6-1-1-1.7-1
			H277c-1.1,0-2,0.9-2,2v42.9c0,4.7-3.8,8.5-8.5,8.5s-8.5-3.8-8.5-8.5v-64.6c0-4.7,3.8-8.5,8.5-8.5h6.3c3.1,0,5.9,1.7,7.4,4.3
			l26.7,47.4c0.4,0.6,1,1,1.7,1h0.2c1.1,0,2-0.9,2-2v-42.3C310.9,156.1,314.7,152.3,319.4,152.3 M319.4,150.3
			c-5.8,0-10.5,4.7-10.5,10.5V203h-0.2L282,155.6c-1.9-3.3-5.4-5.3-9.1-5.3h-6.3c-5.8,0-10.5,4.7-10.5,10.5v64.6
			c0,5.8,4.7,10.5,10.5,10.5h0c5.8,0,10.5-4.7,10.5-10.5v-42.9h0.2l26.7,48c1.9,3.3,5.4,5.4,9.2,5.4h6.2c5.8,0,10.5-4.7,10.5-10.5
			v-64.6C329.9,155,325.2,150.3,319.4,150.3L319.4,150.3z"/>
	</g>
	<g>
		<path class="st3" d="M377.2,236.7c-24.5,0-40.9-17.4-40.9-43.2c0-25.8,16.4-43.2,40.9-43.2s40.9,17.4,40.9,43.2
			C418.1,219.3,401.7,236.7,377.2,236.7z M369.8,167.3c-9.8,0-13.3,7.7-13.3,14.4c0,6.6,3.5,14.4,13.3,14.4s13.3-7.7,13.3-14.4
			C383.1,175,379.6,167.3,369.8,167.3z"/>
		<path d="M377.2,151.2c12.2,0,22.4,4.2,29.5,12.2c6.7,7.5,10.4,18.2,10.4,30c0,11.8-3.7,22.5-10.4,30c-7.1,8-17.3,12.2-29.5,12.2
			c-12.2,0-22.4-4.2-29.5-12.2c-6.7-7.5-10.4-18.2-10.4-30c0-11.8,3.7-22.5,10.4-30C354.9,155.5,365.1,151.2,377.2,151.2 M369.8,197
			c10.6,0,14.3-8.3,14.3-15.4c0-7.1-3.7-15.4-14.3-15.4c-10.6,0-14.3,8.3-14.3,15.4C355.5,188.7,359.2,197,369.8,197 M377.2,149.2
			c-26.8,0-41.9,19.6-41.9,44.2s15.1,44.2,41.9,44.2s41.9-19.6,41.9-44.2S404,149.2,377.2,149.2L377.2,149.2z M369.8,195
			c-8.9,0-12.3-6.7-12.3-13.4c0-6.7,3.4-13.4,12.3-13.4c8.9,0,12.3,6.7,12.3,13.4C382.1,188.3,378.7,195,369.8,195L369.8,195z"/>
	</g>
	<g>
		<path d="M201.4,281.2h-0.3c-1.2,0-2.2-1-2.2-2.2v-1.7h-0.1c-1.6,3.2-5.3,4.6-9.3,4.6c-8.9,0-13.4-7.1-13.4-15.3
			c0-8.2,4.4-15.1,13.2-15.1c3,0,7.2,1.1,9.4,4.5h0.1v-12.7c0-1.2,1-2.2,2.2-2.2h0.3c1.2,0,2.2,1,2.2,2.2v35.6
			C203.7,280.1,202.7,281.2,201.4,281.2z M190.2,277.6c6.4,0,8.9-5.5,8.9-10.9c0-5.7-2.6-11-9.1-11c-6.5,0-8.7,5.6-8.7,11.2
			C181.2,272.3,184,277.6,190.2,277.6z"/>
		<path d="M233.4,271.9c1.7,0,2.7,1.7,2,3.2c-2,4.3-6.1,6.7-11.4,6.7c-9.3,0-13.6-6.4-13.9-15.3c0-8.7,5.7-15.1,13.6-15.1
			c6.9,0,10.5,4.3,12.1,9.2c1.2,3.6-1.6,7.4-5.4,7.4h-12.9c-1.4,0-2.5,1.3-2.2,2.6c0.8,3.9,3.6,6.9,8.8,6.9c3.4,0,5.9-1.4,7.1-4.2
			C231.6,272.5,232.4,271.9,233.4,271.9L233.4,271.9z M229.1,263.9c1.6,0,2.7-1.6,2.1-3c-1.2-3-4.1-5.1-7.7-5.1
			c-3.8,0-6.4,2.2-7.6,5.2c-0.6,1.5,0.6,3,2.1,3H229.1z"/>
		<path d="M244,272c1,0,1.8,0.6,2.1,1.6c0.9,3,4.2,4,7.5,4c3,0,7-0.7,7-4.3c0-3.7-4.7-4.3-9.5-5.4c-4.7-1.1-9.5-2.6-9.5-8.2
			c0-5.8,5.8-8.3,10.8-8.3c5.5,0,10,1.5,11.4,6.3c0.4,1.4-0.7,2.8-2.2,2.8h-0.4c-0.9,0-1.8-0.6-2.1-1.4c-0.9-2.6-3.7-3.5-6.4-3.5
			c-2.9,0-6.2,0.8-6.2,3.7c0,3.4,5.1,4,9.5,5.1c4.8,1.1,9.5,2.6,9.5,8.3c0,6.9-6.5,9.1-12.3,9.1c-5.6,0-10.4-1.9-11.9-7
			c-0.4-1.4,0.7-2.8,2.2-2.8H244z"/>
		<path d="M274.6,246.9h-0.3c-1.2,0-2.2-1-2.2-2.2v-1.3c0-1.2,1-2.2,2.2-2.2h0.3c1.2,0,2.2,1,2.2,2.2v1.3
			C276.9,245.9,275.9,246.9,274.6,246.9z M274.3,252.1h0.3c1.2,0,2.2,1,2.2,2.2v24.5c0,1.2-1,2.2-2.2,2.2h-0.3c-1.2,0-2.2-1-2.2-2.2
			v-24.5C272.1,253.1,273.1,252.1,274.3,252.1z"/>
		<path d="M309.9,278.7c0,9.4-4.3,14.3-13.5,14.3c-4.4,0-9.3-1.4-11.2-5.3c-0.7-1.5,0.4-3.2,2-3.2h0.2c0.9,0,1.7,0.5,2.1,1.4
			c1.1,2.4,4.5,3.3,7.2,3.3c6.2,0,8.7-4.5,8.7-11v-1.9h-0.1c-1.6,3.5-5.4,5.3-9,5.3c-8.6,0-13-6.8-13-14.7c0-6.8,3.4-15.3,13.4-15.3
			c3.6,0,6.9,1.6,8.6,4.8h0.1v-1.9c0-1.2,1-2.2,2.2-2.2l0,0c1.2,0,2.2,1,2.2,2.2V278.7z M305.2,266.1c0-5.1-2.2-10.4-8.3-10.4
			c-6.1,0-8.6,5-8.6,10.6c0,5.2,1.9,11.1,8.2,11.1C302.9,277.3,305.2,271.5,305.2,266.1z"/>
		<path d="M320,252.1L320,252.1c1.2,0,2.2,1,2.2,2.2v2.4h0.1c2-3.6,5.3-5.3,9.4-5.3c7.6,0,10,4.4,10,10.6v16.8c0,1.2-1,2.2-2.2,2.2
			h-0.3c-1.2,0-2.2-1-2.2-2.2v-17.4c0-3.5-2.2-5.8-5.9-5.8c-5.8,0-8.6,3.9-8.6,9.1v14.1c0,1.2-1,2.2-2.2,2.2H320
			c-1.2,0-2.2-1-2.2-2.2v-24.5C317.8,253.1,318.8,252.1,320,252.1z"/>
	</g>
</g>
<circle class="st4" cx="111" cy="332" r="19"/>
<circle class="st4" cx="138.5" cy="373.5" r="15.2"/>
<circle class="st4" cx="170.5" cy="404.5" r="12.2"/>
<g>
	<path d="M213,316.5c-0.2-0.3-0.3-0.5-0.3-0.7c0-0.5,0.4-0.8,0.9-0.8c0.3,0,0.6,0.2,0.8,0.4c1.4,2,2.9,5.1,3.8,7.8
		c0.2-0.1,5.9-3.9,6.8-3.9c0.5,0,0.9,0.4,0.9,0.8c0,0.3-0.2,0.7-0.8,1c-4,2-11.4,5.9-11.4,9.9c0,3.4,5.1,3.4,5.7,3.4
		c2,0,4-0.4,5.3-0.9c0.2-0.1,0.4-0.1,0.6-0.1c0.6,0,0.9,0.4,0.9,0.8c0,0.4-0.3,0.9-0.9,1.1c-1.5,0.4-3.6,0.8-5.6,0.8
		c-6.1,0-7.5-3-7.5-5c0-2.8,2.5-5.3,4.8-6.9C216.2,321.7,214.5,318.3,213,316.5z"/>
	<path d="M250.6,336.1c-6.1,0-9.8-4-9.8-8.8c0-4,2.4-6.8,3.1-7.5c0.2-0.2,0.4-0.4,0.4-0.4c0,0,0-0.1-0.1-0.1c-0.1,0-0.2,0-0.5,0.1
		c-3.5,1.2-8.5,2.5-8.9,2.5c-0.7,0-1.1-0.4-1.1-0.9c0-0.4,0.3-0.8,0.9-0.9c0.7-0.2,2.5-0.5,3.5-0.7c1.5-0.4,4.2-1,7.3-1.9
		c2.1-0.6,6.5-1.8,8.5-1.8c0.7,0,1,0.5,1,0.9c0,0.8-0.6,0.9-2.3,1c-1.6,0.1-3.2,0.4-4.7,0.9c-2,0.7-5.5,4.2-5.5,8.5
		c0,3.7,2.5,7.2,7.9,7.2h0.5c0.9,0,1.3,0.4,1.3,0.9C252.1,335.5,251.8,336.1,250.6,336.1z"/>
	<path d="M266.3,330.9c0,1.3,0,4.8,3.4,4.8c2.9,0,4.9-2.7,4.9-5.1c0-1.7-1-3.3-2.3-4.8c-0.2-0.2-0.3-0.5-0.3-0.7
		c0-0.4,0.4-0.7,0.8-0.7c0.3,0,0.6,0.1,0.8,0.4c1.6,1.9,2.7,3.9,2.7,5.9c0,3.7-3.3,6.6-6.6,6.6c-2.5,0-4.7-1.6-4.9-5.2v-0.8
		c0-0.8,0-1.7,0.1-2.7c-1.3-0.1-2.5-0.4-3.3-0.6c-0.6-0.1-0.8-0.5-0.8-0.8c0-0.4,0.3-0.8,0.8-0.8c0.1,0,0.2,0,0.3,0.1
		c0.9,0.3,2,0.5,3.1,0.6c0.1-1.7,0.4-3.6,0.5-5.3c-3.1-0.3-3.9-0.7-3.9-1.4c0-0.4,0.3-0.8,0.8-0.8c0.1,0,0.2,0,0.4,0.1
		c0.9,0.3,1.9,0.5,2.9,0.6c0.3-3,0.4-4.6,0.5-6.3c0-0.6,0.4-0.8,0.8-0.8c0.4,0,0.9,0.3,0.9,0.9v0.1c-0.1,1.5-0.3,2.7-0.5,4.5
		l-0.2,1.7c0.7,0,1.3-0.1,2-0.2c0.1,0,0.2,0,0.3,0c0.5,0,0.8,0.3,0.8,0.7c0,1.1-2.3,1.1-3.2,1.1c-0.2,1.7-0.4,3.5-0.6,5.2
		c1,0,1.9-0.2,2.8-0.5c0.1,0,0.2-0.1,0.4-0.1c0.5,0,0.8,0.4,0.8,0.8c0,0.3-0.2,0.7-0.7,0.8c-1.2,0.4-2.3,0.5-3.4,0.5
		C266.4,329.3,266.3,330.1,266.3,330.9z"/>
	<path class="st3" d="M306.3,329.3c1.1,0,1.7,0.9,1.6,1.7s-0.6,1.6-1.7,1.5c-6.5-0.2-15.3-0.3-21.1,0.1c-2.1,0.1-2.3-3.2-0.1-3.2
		c3-0.1,7.4-0.2,11.9-0.2c0.6-2,1.3-4.9,1.5-6.4c0.1-0.8,0-1.4-1.2-1.4c-1.9,0-4.9,0-7.8,0.1c-2.4,0.1-2.4-3.1-0.3-3.1
		c3.9-0.1,7.9-0.1,10.1,0c2.6,0.1,3.4,1.9,3,4c-0.5,2.2-1.1,4.9-1.8,6.8C302.4,329.2,304.5,329.3,306.3,329.3z"/>
	<path class="st3" d="M314.9,333c-2.1,0.1-2.3-3.3,0-3.3c5.3-0.1,15.4-0.1,20.9,0c2.4,0.1,1.9,3.4,0,3.3
		C329.7,332.8,320.7,332.8,314.9,333z M318.7,322.2c-2.2,0-2.2-3.3,0.2-3.2c3.5,0.1,8.8,0.1,12.6,0c2-0.1,2.2,3.1-0.2,3.2
		C328,322.3,322,322.3,318.7,322.2z"/>
	<path class="st3" d="M342.5,325.3c-1.2,0-1.7-0.8-1.7-1.5c0-0.8,0.6-1.6,1.7-1.6h20.2c1.1,0,1.6,0.8,1.6,1.6c0,0.8-0.5,1.6-1.6,1.6
		H342.5z"/>
	<path class="st3" d="M382.7,315.7c1.4-0.1,3-0.2,4.2-0.3c2.5-0.1,4.6,1.6,3.4,3.9c-3.9,7.5-8.3,14-17.4,17.6c-2.7,1.1-4-2.1-1.4-3
		c7.1-2.5,12.4-8.9,14.8-14.4c0.3-0.6,0-1.2-0.8-1.2c-1.3,0-3.7,0.3-5.1,0.4c-2.2,2.9-5,6.3-7.2,7.8c-2.2,1.4-4-1.3-1.9-2.7
		c3.1-1.9,7.3-7.8,8.7-10.3c1.1-1.8,4.3-0.3,2.8,1.9L382.7,315.7z"/>
	<path d="M401.3,319.1c-0.9,0-2.8,0-2.8-1c0-0.4,0.3-0.7,0.7-0.7c0.1,0,0.2,0,0.4,0.1c0.6,0.2,1.3,0.3,2.1,0.3
		c0.9,0,1.9-0.1,2.8-0.4c0.4-1.1,0.6-2.4,0.8-3.6c0.1-0.4,0.4-0.7,0.8-0.7c0.4,0,0.8,0.2,0.8,0.7c0,0.5-0.6,2.6-0.7,3.1
		c0.9-0.3,1.7-0.7,2.4-1.2c0.2-0.1,0.3-0.1,0.4-0.1c0.4,0,0.7,0.3,0.7,0.7c0,0.9-2,1.6-4.1,2.2c-1.4,3.5-3.4,7-5.7,10.6
		c-0.2,0.4-0.6,0.6-0.9,0.6c-0.4,0-0.8-0.3-0.8-0.7c0-0.2,0.1-0.4,0.2-0.6c2.9-4.3,4-5.9,5.5-9.5C403.1,319,402.2,319.1,401.3,319.1
		z M410.8,330c0-1.2-0.1-2.8-0.1-4c0-2.2,0.2-2.6,0.9-2.6c0.4,0,0.7,0.3,0.7,0.7v0.2c-0.1,0.6-0.1,1-0.1,1.7v0.5
		c0,1.1,0.1,2.5,0.1,3.5c0,0.4,0.1,0.8,0.1,1.2c2.2,0.9,4.4,2.5,4.4,3.5c0,0.5-0.4,0.9-0.8,0.9c-0.2,0-0.5-0.1-0.7-0.4
		c-0.7-0.9-1.7-1.7-2.9-2.4l-0.1,0.4c-0.5,2.2-2.7,3.4-5,3.4c-2.5,0-4.6-1.5-4.6-3.3c0-1.7,2.1-3.1,5.1-3.1c1,0,2,0.2,3.1,0.4V330z
		 M407.7,331.6c-1.5,0-3.6,0.6-3.6,1.8c0,1,1.5,1.9,3.1,1.9c1.6,0,3.1-0.8,3.4-2.4c0.1-0.2,0.1-0.5,0.1-0.7
		C409.7,331.8,408.7,331.6,407.7,331.6z M417.3,322c-1.4-0.9-2.9-1.3-4.6-1.3c-0.2,0-0.4,0-0.6,0h-0.1c-0.4,0-0.7-0.3-0.7-0.6
		c0-0.5,0.3-0.9,1.7-0.9c1.3,0,5.5,0.6,5.5,2c0,0.5-0.4,0.8-0.8,0.8C417.5,322.1,417.4,322.1,417.3,322z"/>
	<path class="st3" d="M271.7,380.1c-1.5,0-3-1.1-3.6-3.5c-0.9-3.5-2.6-13.8-3-16.6c-0.1-0.4-0.2-0.6-0.3-0.6c-0.1,0-0.2,0.2-0.3,0.6
		c-0.4,3-2,12.4-3.1,16.5c-0.6,2.4-2.2,3.6-3.8,3.6c-1.6,0-3.2-1.2-3.7-3.5c-3.6-16.8-4-19.3-4-19.9c0-1.2,1-1.8,2-1.8
		c0.9,0,1.8,0.5,2,1.5c3.3,19.1,3.4,19.3,3.9,19.3c0.3,0,0.5-0.4,0.6-0.9c0.6-2.8,2.4-12.8,3.3-17.2c0.3-1.8,1.7-2.6,3.1-2.6
		c1.5,0,2.9,0.9,3.2,2.5c0.7,3.8,2.4,13.3,3.1,17.2c0.1,0.6,0.3,0.8,0.4,0.8c0.5,0,0.7,0,4.4-19.1c0.2-1,1-1.4,1.9-1.4
		c1,0,2.1,0.7,2.1,1.7c0,0.6-1.8,8.5-4.5,20.1C274.8,378.9,273.2,380.1,271.7,380.1z"/>
	<path class="st3" d="M294.7,358.3c-3.3,0-4,0.1-4.1,1.5c-0.1,0.8,0,2.4-0.1,4.3c0,0.7,0,0.7,4.1,0.7c1.5,0,3.1,0,3.7,0
		c1.9-0.1,1.9,1.7,1.9,1.8c0,1-0.6,1.9-1.8,1.9c0,0-0.1,0-0.2,0c-0.8-0.1-2.1-0.1-3.4-0.1c-4.1,0-4.4,0-4.4,0.7c0,4.9,0,5.7,0.1,6.3
		c0.2,1.5,0.7,1.6,5.4,1.6c2,0,4.1,0,4.7-0.1c0.1,0,0.1,0,0.2,0c1.2,0,1.8,0.8,1.8,1.7c0,0.9-0.7,1.8-2.1,1.9
		c-0.4,0-2.4,0.1-4.3,0.1c-1.9,0-3.8,0-4.2-0.1c-3.1-0.2-4.9-1.3-5.1-4.2c-0.1-1.4-0.1-3.9-0.1-6.5c0-4,0-8.6,0.1-10.7
		c0.1-2.7,1.8-4,4.5-4.2c0.6,0,2.5-0.1,4.3-0.1c1.9,0,3.7,0,4.2,0.1c1.3,0.1,1.9,0.9,1.9,1.8c0,0.9-0.7,1.8-2,1.8
		C299.9,358.3,296.9,358.3,294.7,358.3z"/>
	<path class="st3" d="M318.7,380.4c-0.4,0-1.3,0.1-2.1,0.1c-3.2,0-7-0.1-7.2-4.3c-0.1-1.4-0.1-3.9-0.1-6.6c0-4,0-8.6,0.1-10.7
		c0.1-4.1,3.8-4.2,6.6-4.2c0.7,0,1.4,0,1.9,0.1c5.5,0.4,7.6,3.3,7.6,6.1c0,2.5-1.7,5-4,5.3c-0.3,0.1-0.5,0.1-0.5,0.2
		c0,0,0.1,0.1,0.5,0.1c3.6,0.3,5.5,3.1,5.5,6.2C327,376.2,324.4,380.1,318.7,380.4z M323.2,372.3c0-2-1.3-3.9-4.4-4.1
		c-0.8-0.1-1.7-0.1-2.5-0.1c-3.1,0-3.4,0.1-3.4,0.8c0,4.1,0,5.7,0.1,6.6c0.2,1.2,0.5,1.6,3.6,1.6c0.8,0,1.6,0,2.2-0.1
		C321.6,376.8,323.2,374.5,323.2,372.3z M315.9,358.1c-2.1,0-2.8,0.3-2.9,1.5c-0.1,0.8,0,2.7-0.1,4.6c0,0.7,0.5,0.7,2.7,0.7
		c0.8,0,1.7,0,2.3,0c2.4-0.1,3.9-2,3.9-3.8c0-1.6-1.2-3-4.1-3C317.6,358.1,316.8,358.1,315.9,358.1z"/>
	<path class="st3" d="M340.5,370.3c-2.2,0-2.7,0.1-2.7,1.3c0,0.4,0,1,0,1.6c0,1.4,0,3.1,0,4.3v0c0,0.9-0.7,1.4-1.4,1.4
		c-0.7,0-1.5-0.5-1.5-1.4c0-0.9,0-2.1,0-3.3s0-2.4,0-3.3c0.1-3.1,1.9-3.1,5.5-3.1v-2.3l-5.4,0c-0.9,0-1.4-0.6-1.4-1.3
		c0-0.6,0.5-1.3,1.4-1.3h5.4v-2.7h-2.8c-0.7,1.4-1.3,2.1-2.2,2.1c-0.8,0-1.5-0.6-1.5-1.3c0-0.2,0.1-0.5,0.2-0.7
		c1.3-1.7,1.8-2.9,2.3-4.8c0.2-0.6,0.7-0.9,1.3-0.9c0.8,0,1.6,0.5,1.6,1.2c0,0.1-0.1,0.8-0.5,1.8l1.7,0v-3.4c0-0.9,0.8-1.4,1.5-1.4
		c0.7,0,1.5,0.5,1.5,1.4v3.4l4.3,0c0.9,0,1.4,0.6,1.4,1.3c0,0.7-0.5,1.3-1.4,1.3h-4.3v2.7h5.5c0.9,0,1.4,0.6,1.4,1.3
		c0,0.7-0.4,1.3-1.4,1.3l-5.5,0v2.3c0.9,0,1.8,0,2.5,0c2.2,0.1,3.2,1.1,3.2,3.1c0,1,0,2.7,0,3.8c0,0.1,0,0.1,0,0.2
		c0,1.9-0.8,3.4-3.1,3.4c-1.6,0-2.1-0.4-2.1-1.5c0-0.7,0.3-1.3,1-1.3c0,0,0.1,0,0.2,0c0.2,0,0.3,0.1,0.5,0.1c0.4,0,0.8-0.2,0.8-1
		c0,0,0-2.2,0-3.2c0-1.2-0.8-1.3-2.9-1.3v10c0,1-0.8,1.5-1.5,1.5c-0.8,0-1.5-0.5-1.5-1.5V370.3z M351.8,356.8c0-1,0.8-1.5,1.5-1.5
		c0.8,0,1.6,0.5,1.6,1.5v16.8c0,0.9-0.8,1.4-1.6,1.4c-0.8,0-1.5-0.5-1.5-1.4V356.8z M361.2,377.2
		C361.2,377.3,361.2,377.3,361.2,377.2c0,2.1-1.3,4.4-5.4,4.4c-2.7,0-3.8-0.5-3.8-1.9c0-0.8,0.5-1.7,1.4-1.7c0.1,0,0.2,0,0.4,0
		c0.7,0.1,1.5,0.4,2.3,0.4c1,0,1.9-0.4,1.9-1.8c0-1.2,0-10.4,0-16.4c0-2.5,0-4.5,0-5.2c0-1,0.8-1.5,1.6-1.5s1.6,0.5,1.6,1.5
		c0,0,0,0,0,18.2L361.2,377.2z"/>
	<path class="st3" d="M370.7,380.7l0.3-15.9c-2.6,3.3-3.6,3.8-4.4,3.8c-0.9,0-1.6-0.7-1.6-1.5c0-0.4,0.2-0.8,0.6-1.2
		c3.3-2.9,6.3-7.2,8-11.7c0.3-0.7,0.8-1,1.4-1c0.9,0,1.8,0.7,1.8,1.6c0,0.7-1.5,3.5-2.7,5.3l-0.4,20.5c0,1-0.8,1.5-1.6,1.5
		C371.5,382.3,370.7,381.8,370.7,380.7L370.7,380.7z M385.6,374.8v5.7c0,1.1-0.8,1.6-1.6,1.6s-1.6-0.5-1.6-1.6v-18.8h-1.2
		c-1,1.9-2.2,3.8-3.6,5.6c-0.5,0.6-1,0.9-1.5,0.9c-0.8,0-1.5-0.7-1.5-1.5c0-0.3,0.1-0.7,0.4-1.1c2.2-2.6,4.4-6.4,5.6-11.3
		c0.2-0.9,0.9-1.2,1.5-1.2c0.9,0,1.7,0.6,1.7,1.5c0,0.5-1,3.2-1.4,4.1H394c0.9,0,1.4,0.7,1.4,1.5s-0.5,1.4-1.4,1.4h-8.4v3.6h6.8
		c0.9,0,1.4,0.7,1.4,1.5c0,0.7-0.5,1.4-1.4,1.4h-6.8v3.7h7.2c0.9,0,1.4,0.7,1.4,1.5c0,0.7-0.5,1.4-1.4,1.4H385.6z"/>
	<path d="M264.8,409.2c-0.5,0-0.8-0.4-0.8-0.8c0-0.3,0.2-0.6,0.6-0.9c3-2,6.8-7,8.5-10.1c0.1-0.3,0.5-0.4,0.7-0.4
		c0.5,0,0.9,0.3,0.9,0.8c0,0.3-0.1,0.6-1.2,2.1c2.9-0.2,5.2-0.4,5.5-0.4c1.6,0,2.5,0.8,2.5,1.9c0,0.3-0.1,0.7-0.3,1
		c-3.1,6.4-8.1,13-16.2,16.2c-0.2,0.1-0.5,0.1-0.7,0.1c-0.6,0-0.9-0.4-0.9-0.8c0-0.4,0.3-0.7,0.9-1c9.3-3.2,15-14,15-15.4
		c0-0.4-0.3-0.7-0.9-0.7c-0.8,0-3.9,0.3-6.2,0.5C270.9,403.8,266.2,409.2,264.8,409.2z M283.8,399.7c-0.6-0.7-2-1.7-2.9-2.1
		c-0.3-0.1-0.4-0.3-0.4-0.5c0-0.3,0.3-0.7,0.8-0.7c0.7,0,3.9,1.7,3.9,2.8c0,0.4-0.4,0.8-0.7,0.8C284.2,399.9,284,399.8,283.8,399.7z
		 M286.3,397.4c-0.6-0.7-2.1-1.7-3-2.1c-0.3-0.1-0.4-0.3-0.4-0.5c0-0.3,0.3-0.6,0.8-0.6c0.8,0,3.9,1.7,3.9,2.7
		c0,0.4-0.3,0.8-0.7,0.8C286.7,397.7,286.5,397.6,286.3,397.4z"/>
	<path d="M287.1,416.2c0-0.3,0.2-0.7,0.7-0.9c4.8-2.2,7.5-6.7,7.5-12.5v-0.7c0-0.7,0.4-1,0.8-1c0.9,0,0.9,0.8,0.9,1.4
		c0,10.5-8,14.5-8.9,14.5C287.4,417.1,287.1,416.7,287.1,416.2z M302,401.6l-0.4,11.3v0.1c0,0.6,0.3,0.8,0.6,0.8
		c0.9,0,5.5-2.8,8.6-8.7c0.2-0.4,0.5-0.6,0.8-0.6c0.4,0,0.8,0.4,0.8,0.9c0,0.2,0,0.4-0.1,0.5c-3.4,6.1-8.8,9.8-10.6,9.8
		c-1,0-1.9-0.7-1.9-1.9v-0.2c0.2-2.8,0.5-10.1,0.5-11.9c0-0.7,0.4-1,0.9-1C301.6,400.6,302,400.9,302,401.6L302,401.6z"/>
	<path d="M318.7,407.8c-0.6,0-0.9-0.4-0.9-0.8c0-0.4,0.3-0.9,0.9-0.9h19.1c0.6,0,0.8,0.4,0.8,0.8c0,0.4-0.3,0.8-0.8,0.8H318.7z"/>
	<path d="M345.5,401.9c-0.6,0-0.9-0.4-0.9-0.9c0-0.4,0.3-0.8,0.9-0.8c2.8-0.1,6.5-0.2,9.7-0.2c1.4,0,2.8,0,3.9,0
		c1.7,0,2.8,1,2.8,2.4c0,0.4-0.1,0.7-0.2,1.1c-2.1,6-5.8,11.8-14.1,14.9c-0.2,0.1-0.4,0.1-0.6,0.1c-0.6,0-1-0.4-1-0.8
		c0-0.4,0.2-0.8,0.8-1c9.8-3.1,13.1-12.6,13.1-14.1c0-1-0.6-1-2.9-1C353.9,401.6,349.3,401.7,345.5,401.9L345.5,401.9z M364.4,400.1
		c-1.6,0-3-1.3-3-3c0-1.6,1.3-3,3-3c1.6,0,3,1.3,3,3C367.4,398.8,366,400.1,364.4,400.1z M364.4,395.3c-1,0-1.9,0.9-1.9,1.9
		c0,1,0.8,1.9,1.9,1.9c1,0,1.9-0.8,1.9-1.9C366.3,396.1,365.4,395.3,364.4,395.3z"/>
</g>
<rect x="518" y="412.9" class="st5" width="2.4" height="0"/>
</svg>
