<svg id="Layer_1" data-name="Layer 1" xmlns="http://www.w3.org/2000/svg" viewBox="0 0 361 275"><defs><style>.cls-1{fill:#e6e6e6;}.cls-2{fill:#b3cedd;}.cls-2,.cls-3,.cls-4,.cls-5{stroke:#000;stroke-width:2px;}.cls-2,.cls-3,.cls-4{stroke-miterlimit:10;}.cls-3{fill:#c69;}.cls-4{fill:#edb230;}.cls-5{fill:none;stroke-linecap:round;stroke-linejoin:round;}.cls-6{fill:#fff;}</style></defs><path class="cls-1" d="M10,0H351a10,10,0,0,1,10,10V41a0,0,0,0,1,0,0H0a0,0,0,0,1,0,0V10A10,10,0,0,1,10,0Z"/><path class="cls-2" d="M354.45,62.49A55.08,55.08,0,0,0,327.58,56c-33.53,0-53.25,24.61-53.25,56.22,0,.73,0,1.46,0,2.18a49.79,49.79,0,0,0,16.91,35.73H267.32V68a11.07,11.07,0,0,0-11.16-11h0A11.06,11.06,0,0,0,245,68v60.51h-.31l-42-66.31A11.22,11.22,0,0,0,193.27,57h-6.33a11.06,11.06,0,0,0-11.15,11v82.17H169s0-.1-.05-.15l-33.29-87.5a9.13,9.13,0,0,0-8.57-5.84H115.19a9.14,9.14,0,0,0-8.55,5.79l-33.78,87.5c0,.07,0,.14-.07.2h-7.1a18.66,18.66,0,0,0,2.67-4.4,31.74,31.74,0,0,0,2.52-12.65c0-24.05-24.16-28.94-32-30.87-27-6.83-32.16-7.87-32.16-16,0-8.9,8.76-12,16.31-12,9.49,0,17.5,2.29,20.28,10.56a6.67,6.67,0,0,0,3.26,3.73c12.07,6.24,21.88-5.64,16.62-14.81C56.07,61.23,40.56,56.05,24.07,56.05a53.06,53.06,0,0,0-17.6,3,6.41,6.41,0,0,0-4.29,6v44.32a6.42,6.42,0,0,0,4.33,6c3.06,1.08,6.23,2,9.41,2.83,15.85,4.15,32,6.08,32,17.51,0,10.83-12.68,13.21-21,13.21-10.26,0-21.23-4-24.76-5.76-.4-.21,0,16.05,0,17.81V262.12c0,6,4.56,10.88,10.2,10.88H348.79c5.64,0,10.21-4.87,10.21-10.88V70.24A8.82,8.82,0,0,0,354.45,62.49ZM111,110.16c3-8,10.75-10,16.89-4,6.89,6.65,2,16.11-5.87,16.11h-2.42A9,9,0,0,1,111,110.16ZM98.2,145.75a9.14,9.14,0,0,1,8.63-6h27.64a9.13,9.13,0,0,1,8.66,6.09l1.48,4.29h-48Zm99.9,4.38V92.21h.3L235,150.13Zm115-38.23c-10.7,0-15-9.08-15-18,0-9.32,4-18.27,14.71-18.27S327.57,84.63,327.57,94C327.57,102.82,323.83,111.9,313.14,111.9Z"/><circle class="cls-2" cx="22.5" cy="21.5" r="7.5"/><circle class="cls-3" cx="45.5" cy="21.5" r="7.5"/><circle class="cls-4" cx="68.5" cy="21.5" r="7.5"/><line class="cls-5" x1="357" y1="40.67" x2="2.26" y2="40.67"/><path class="cls-6" d="M69.53,227.37h-.2c-4,7.81-10.12,11.76-19,11.76-14.94,0-21.4-12.14-21.4-25.84,0-14.65,7.13-26,22.08-26,8.1,0,15.71,4.44,18.31,12.25h.2V170.86a1.72,1.72,0,0,1,1.71-1.72h.23a1.72,1.72,0,0,1,1.72,1.72v65.4A1.72,1.72,0,0,1,71.47,238h-.23a1.72,1.72,0,0,1-1.71-1.72Zm-.1-14.08c0-11.56-5.69-22.84-18.41-22.84-13.11,0-18.42,10.89-18.42,22.84C32.6,225,38.39,236,51.11,236,63.65,236,69.43,224.67,69.43,213.29Z"/><path class="cls-6" d="M95.71,213.68A1.7,1.7,0,0,0,94,215.42c.42,11,6.57,20.53,18.2,20.53,8.89,0,15.33-5,17.44-13.4a1.75,1.75,0,0,1,1.68-1.35h.17a1.73,1.73,0,0,1,1.68,2.13c-2.48,10.22-9.95,15.8-21,15.8-14.46,0-22.08-11.37-21.88-25.06-.2-13.6,6.94-26.81,21.88-26.81S134.1,198.56,134,212a1.69,1.69,0,0,1-1.71,1.67Zm32.79-3.18a1.74,1.74,0,0,0,1.72-1.91c-.91-9.65-7.34-18.14-18-18.14-10.25,0-16.56,8.88-18,18.05a1.74,1.74,0,0,0,1.71,2Z"/><path class="cls-6" d="M150.45,221.49a1.7,1.7,0,0,1,1.69,1.46c1.18,8.26,7.76,13,16.24,13,6.46,0,15.71-1.93,15.71-10.51,0-8.38-8.48-9.64-17-11.37s-17.07-4-17.07-14.08c0-9.83,9.55-12.73,17.94-12.73,9.9,0,17.4,4,18.24,13.93a1.74,1.74,0,0,1-1.72,1.89h-.25a1.71,1.71,0,0,1-1.7-1.55c-.77-7.84-6.78-11.08-14.57-11.08-6.75,0-14.27,2.5-14.27,9.54,0,7.91,8.48,9.16,16.48,10.89,9.84,1.84,17.55,4.15,17.55,14.56,0,10.7-10.7,13.69-19.38,13.69-10.64,0-18.79-5.4-19.92-15.71a1.73,1.73,0,0,1,1.71-1.93Z"/><path class="cls-6" d="M205,177.35v-6.49a1.72,1.72,0,0,1,1.72-1.72H207a1.72,1.72,0,0,1,1.71,1.72v6.49a1.72,1.72,0,0,1-1.71,1.72h-.23A1.72,1.72,0,0,1,205,177.35Zm0,58.91V190.14a1.72,1.72,0,0,1,1.72-1.72H207a1.72,1.72,0,0,1,1.71,1.72v46.12A1.72,1.72,0,0,1,207,238h-.23A1.72,1.72,0,0,1,205,236.26Z"/><path class="cls-6" d="M267.13,188.42a1.72,1.72,0,0,1,1.72,1.72v45.23c0,3.86,0,22.18-21.4,21.5-10,0-17.83-3.5-19.2-13.48a1.72,1.72,0,0,1,1.71-1.94h.27a1.7,1.7,0,0,1,1.68,1.4c1.36,7.74,8,10.84,15.63,10.84,17.36,0,17.65-14.17,17.65-17.45V224.86H265c-3.47,7.33-9.54,11.28-17.93,11.28-14.56,0-21.4-10.7-21.4-24.48,0-13.12,7.42-24.4,21.4-24.4,7.71,0,15.23,4.05,17.93,11.48h.2v-8.6a1.71,1.71,0,0,1,1.71-1.72Zm-37.81,23.24c0,11.66,6.07,21.3,17.74,21.3,12.05,0,18-10.12,18-21.3s-5.88-21.21-18-21.21C235.11,190.45,229.32,201.15,229.32,211.66Z"/><path class="cls-6" d="M289.54,188.42h.23a1.72,1.72,0,0,1,1.72,1.72V199h.19c2.51-7.43,10-11.77,17.74-11.77,17.45,0,17.64,14,17.64,20.06v28.94a1.72,1.72,0,0,1-1.72,1.72h-.23a1.72,1.72,0,0,1-1.71-1.72V206.64c0-5.11-.58-16.19-14.08-16.19-11.08,0-17.83,8.58-17.83,20.72v25.09a1.72,1.72,0,0,1-1.72,1.72h-.23a1.72,1.72,0,0,1-1.72-1.72V190.14A1.72,1.72,0,0,1,289.54,188.42Z"/><path d="M350.68,3a7,7,0,0,1,7,7V265a7,7,0,0,1-7,7H10a7,7,0,0,1-7-7V10a7,7,0,0,1,7-7H350.68m0-3H10A10,10,0,0,0,0,10V265a10,10,0,0,0,10,10H350.68a10,10,0,0,0,10-10V10a10,10,0,0,0-10-10Z"/></svg>