<svg id="Layer_1" data-name="Layer 1" xmlns="http://www.w3.org/2000/svg" viewBox="0 0 160.6 134.73"><defs><style>.cls-1{fill:#edb231;stroke:#3c3c3c;stroke-miterlimit:10;}</style></defs><path class="cls-1" d="M38.15,51.71c-6.57,0-10-3.75-10-5.73a2.35,2.35,0,0,1,2.34-2.29,2.16,2.16,0,0,1,1.77,1,7,7,0,0,0,5.89,2.7c4.43,0,5.4-3,5.4-4.31a5.33,5.33,0,0,0-3.06-4.51c-1.78-1-4-2.22-6.09-3.19-3.55-1.61-5.16-4.47-5.16-7.25,0-3.91,3.15-7.66,8.71-7.66s8.74,2.66,8.74,4.56a2.35,2.35,0,0,1-2.26,2.34,2.59,2.59,0,0,1-1.89-1A5.84,5.84,0,0,0,38,24.54c-2.58,0-4.15,1.62-4.15,3.43a4.13,4.13,0,0,0,2.54,3.55c1.65.88,4.43,2.17,6.28,3.18,4,2.22,5.72,5.28,5.72,8.26C48.34,47.27,44.68,51.71,38.15,51.71Z"/><path class="cls-1" d="M73.73,51.3a2.37,2.37,0,0,1-2.3-1.49c-.48-1.17-1.53-4.39-2.78-8.14-.08-.24-.2-.36-.44-.36-.65,0-2.3,0-4.11,0-2.42,0-5.12,0-6,0a.5.5,0,0,0-.48.36l-2.54,8a2.28,2.28,0,0,1-2.25,1.65,2.16,2.16,0,0,1-2.3-2c0-.73.12-1,8.95-25.87a3.71,3.71,0,0,1,3.54-2.7,4,4,0,0,1,3.75,2.78C69.38,30.79,74.62,44.81,76,48a3.18,3.18,0,0,1,.24,1.17A2.28,2.28,0,0,1,73.73,51.3ZM67,36.67c-1.25-3.78-2.46-7.45-3.1-9.43-.24-.72-.45-1.12-.69-1.12s-.44.36-.72,1.16c-.61,1.62-3.23,9.15-3.23,9.51,0,.17.08.25.33.25.8,0,2.29,0,3.7,0s2.86,0,3.43,0c.24,0,.32,0,.32-.16A.47.47,0,0,0,67,36.67Z"/><path class="cls-1" d="M80.38,49.37c.08-4.15.12-9,.12-13.66,0-4,0-7.86-.08-10.88v-.16c0-2.83,1.57-4,3.34-4a4.86,4.86,0,0,1,3.95,2.17c2.54,4,9.27,16.61,12.33,21.2.25.36.45.56.57.56s.28-.12.28-1.69c0-3.79-.12-16.36-.24-20.07a2.35,2.35,0,0,1,4.67-.08v.08c-.08,2.82-.12,6.73-.12,10.76,0,5.12,0,10.4.12,13.9v.09a3.64,3.64,0,0,1-3.66,3.82,4.11,4.11,0,0,1-3.47-2C95.37,45,87.83,31.19,85.66,27.53c-.16-.25-.45-.77-.65-.77s-.24.4-.24,2.26c0,4.19.12,16.08.24,20.35v.08c0,1.29-1.13,1.89-2.29,1.89a2.09,2.09,0,0,1-2.34-1.93Z"/><path class="cls-1" d="M111,36.11c0-9.07,6.65-15.64,15.52-15.64A15.17,15.17,0,0,1,142,36.11c0,9.39-6.69,15.64-15.55,15.64S111,45.5,111,36.11Zm26.32,0c0-7-4.84-11.49-10.8-11.49s-10.8,4.52-10.8,11.49,4.83,11.4,10.8,11.4S137.28,43,137.28,36.11Z"/><path class="cls-1" d="M20.48,92.75c-3.23,0-9,0-9.35-5.69-.12-2-.2-5.24-.2-8.62,0-4.43.12-9.11.24-11.28.32-5.52,4.31-5.69,9.31-5.69,1.25,0,2.46,0,3.06.08C32.85,62.16,38,68.65,38,77,38,92.71,24.67,92.75,20.48,92.75Zm-.57-26.92c-1.93,0-4.11,0-4.23,2-.12,1.69-.24,6.33-.24,10.68,0,3.18.08,6.17.24,7.7.2,1.85,1.45,2.17,4.8,2.17,4.23,0,12.73,0,12.73-11.4,0-6.49-3.91-11.16-10.07-11.16C23.14,65.87,21.41,65.83,19.91,65.83Z"/><path class="cls-1" d="M53.2,65.83c-4,0-4.88.08-5,1.81-.08,1,0,2.94-.08,5.28,0,.8,0,.8,5,.8,1.85,0,3.79,0,4.51,0a2,2,0,0,1,2.26,2.14,2.14,2.14,0,0,1-2.14,2.3h-.2C56.54,78,55,78,53.48,78c-5,0-5.4,0-5.4.88,0,6,0,6.93.12,7.62.2,1.85.85,1.93,6.53,1.93,2.38,0,5,0,5.72-.08h.2a2,2,0,0,1,2.18,2.06,2.35,2.35,0,0,1-2.54,2.25c-.52,0-2.86.09-5.2.09s-4.63,0-5.16-.09c-3.7-.28-6-1.61-6.16-5.15-.08-1.7-.08-4.68-.08-7.94,0-4.92,0-10.4.12-12.94.08-3.22,2.18-4.91,5.44-5.08.72,0,3-.08,5.28-.08s4.51,0,5.12.08a2.15,2.15,0,0,1,2.25,2.14,2.21,2.21,0,0,1-2.37,2.18S55.94,65.83,53.2,65.83Z"/><path class="cls-1" d="M75.48,92.71c-6.57,0-10-3.75-10-5.73a2.35,2.35,0,0,1,2.34-2.29,2.17,2.17,0,0,1,1.77,1,6.93,6.93,0,0,0,5.88,2.7c4.44,0,5.4-3,5.4-4.31a5.31,5.31,0,0,0-3.06-4.51c-1.77-1-4-2.22-6.09-3.19-3.54-1.61-5.15-4.47-5.15-7.25,0-3.91,3.14-7.66,8.7-7.66s8.75,2.66,8.75,4.56a2.35,2.35,0,0,1-2.26,2.34,2.56,2.56,0,0,1-1.89-1,5.89,5.89,0,0,0-4.64-1.86c-2.58,0-4.15,1.62-4.15,3.43a4.15,4.15,0,0,0,2.54,3.55c1.65.88,4.43,2.17,6.29,3.18C84,77.92,85.68,81,85.68,84,85.68,88.27,82,92.71,75.48,92.71Z"/><path class="cls-1" d="M95.67,90.17a2.44,2.44,0,0,1-4.84,0v0c.09-4.84.21-10.24.21-15.44,0-3.83-.08-7.49-.21-10.76-.08-1.69,1.74-2.13,2.46-2.13a2.13,2.13,0,0,1,2.38,2v.08c-.08,3.35-.12,7.13-.12,11,0,5,0,10.28.12,15.24Z"/><path class="cls-1" d="M123.56,80.62c-.41,0-2.42,0-4.64.12h-.08a2.15,2.15,0,0,1-2-2.34c0-2.14,1.73-2.14,3.06-2.14,2,0,4.23.08,5.56.08,3.47,0,4.75,1.78,4.75,4.28,0,4.59-4.11,12.13-13.7,12.13-8.1,0-15.07-6-15.07-15.36,0-8.18,5.76-16,15.6-16,6.4,0,10.76,3.71,10.76,5.89a2.53,2.53,0,0,1-2.46,2.5,2.61,2.61,0,0,1-2.06-1.09,8.47,8.47,0,0,0-6.65-2.86c-7.05,0-10.47,6.16-10.47,11.32,0,5.36,3.46,10.88,10.35,10.88,6.65,0,8.47-5.16,8.47-6.33,0-.76-.61-1.12-1.33-1.12Z"/><path class="cls-1" d="M135.16,90.37c.08-4.15.12-9,.12-13.66,0-4,0-7.86-.08-10.88v-.16c0-2.83,1.57-4,3.34-4a4.84,4.84,0,0,1,4,2.17c2.54,4,9.27,16.6,12.33,21.2.25.36.45.56.57.56s.28-.12.28-1.69c0-3.79-.12-16.36-.24-20.07a2.35,2.35,0,0,1,4.67-.08v.08c-.08,2.82-.12,6.73-.12,10.76,0,5.12,0,10.4.12,13.9v.09a3.64,3.64,0,0,1-3.66,3.82,4.11,4.11,0,0,1-3.47-2c-2.82-4.47-10.36-18.26-12.53-21.92-.16-.25-.45-.77-.65-.77s-.24.4-.24,2.26c0,4.19.12,16.08.24,20.35v.08c0,1.29-1.12,1.89-2.29,1.89a2.09,2.09,0,0,1-2.34-1.93Z"/><path class="cls-1" d="M58.44,107.71c-2.1-2.58,1.85-4.75,3.46-2.46a41.22,41.22,0,0,1,4.72,9.39,76,76,0,0,1,7.09-4.43c2.74-1.53,4.84,2.34,1.73,3.91A60.65,60.65,0,0,0,64,121.25c-4,3.39-4.11,6.41-1,7.94,2.82,1.41,8.58.36,11-.52,3.39-1.29,4.6,3.34,1,4.35-3.18.89-9.91,1.69-13.9-.32-5.81-2.94-5.56-9.47,1-14.67.41-.32.77-.65,1.17-.93A33,33,0,0,0,58.44,107.71Z"/><path class="cls-1" d="M87.29,132.29c-1.29-4.06-1.17-9.26-.65-14.14s1.41-9.39,1.62-12c.24-3.26,4.47-2.46,4.07.08-.29,1.82-1,5.32-1.49,8.75a44.48,44.48,0,0,0-.77,8.42c.08.72.12.84.52,0,.12-.24.41-1,.49-1.17.92-1.93,4-.56,2.54,2.46a23.42,23.42,0,0,0-1.25,3.18c-.33,1-.57,1.9-.73,2.54-.32,1.13.2,2.26-.8,3.23S88,134.47,87.29,132.29Zm12.53.85c-3.5-2-3.58-6.61.61-8.46a11.45,11.45,0,0,1,7.09-.49c0-.64-.08-1.24-.12-2-.12-1.65-.2-4.76-.32-7.94a27.41,27.41,0,0,1-6.61.28c-2.78-.24-2.3-4.35.8-3.83a16.52,16.52,0,0,0,5.68-.12c0-2.25-.08-4.31,0-5.56.08-2.62,4-2.25,3.87-.08-.08,1.13-.12,2.82-.12,4.8.69-.2,1.41-.37,2.06-.57,2.62-.8,4.35,2.86.88,3.71-1,.24-1.93.48-2.9.69,0,3.14.16,6.28.24,8.26,0,1,.21,2.33.25,3.62a19.38,19.38,0,0,1,4.55,2.95c2.3,2.09-.57,5.6-2.58,3.46a18.69,18.69,0,0,0-2.5-2.09C109.13,132.94,104.21,135.64,99.82,133.14Zm7.34-5.28a7.3,7.3,0,0,0-5.57-.24,1.35,1.35,0,0,0-.24,2.38c1.94,1.09,5.2.24,5.85-2.14Z"/><text/></svg>