<?xml version="1.0" encoding="utf-8"?>
<!-- Generator: Adobe Illustrator 25.1.0, SVG Export Plug-In . SVG Version: 6.00 Build 0)  -->
<svg version="1.1" id="Layer_1" xmlns="http://www.w3.org/2000/svg" xmlns:xlink="http://www.w3.org/1999/xlink" x="0px" y="0px"
	 viewBox="0 0 277.3 62.7" style="enable-background:new 0 0 277.3 62.7;" xml:space="preserve">
<style type="text/css">
	.st0{fill:#CC6699;stroke:#3C3C3C;stroke-miterlimit:10;}
	.st1{fill:none;}
</style>
<g>
	<path class="st0" d="M11.8,51.7c-6.6,0-10-3.7-10-5.7c0-1.3,1.2-2.3,2.3-2.3c0.6,0,1.3,0.3,1.8,1c1,1.5,3,2.7,5.9,2.7
		c4.4,0,5.4-3,5.4-4.3c0-1.6-1-3.3-3.1-4.5c-1.8-1-3.9-2.2-6.1-3.2C4.6,33.8,3,30.9,3,28.1c0-3.9,3.1-7.7,8.7-7.7s8.7,2.7,8.7,4.6
		c0,1.2-1,2.3-2.3,2.3c-0.6,0-1.3-0.3-1.9-1c-0.8-0.8-2.1-1.9-4.6-1.9c-2.6,0-4.2,1.6-4.2,3.4c0,1.2,0.8,2.6,2.5,3.5
		c1.7,0.9,4.4,2.2,6.3,3.2c4,2.2,5.7,5.3,5.7,8.3C22,47.3,18.4,51.7,11.8,51.7z"/>
	<path class="st0" d="M47.4,51.3c-0.9,0-1.9-0.4-2.3-1.5c-0.5-1.2-1.5-4.4-2.8-8.1c-0.1-0.2-0.2-0.4-0.4-0.4c-0.6,0-2.3,0-4.1,0
		c-2.4,0-5.1,0-6,0c-0.2,0-0.4,0.1-0.5,0.4c-1,3.2-1.9,6.1-2.5,8c-0.4,1.1-1.3,1.7-2.3,1.7c-1.1,0-2.3-0.8-2.3-2
		c0-0.7,0.1-1,8.9-25.9c0.6-1.9,2.1-2.7,3.5-2.7c1.5,0,3.1,1,3.7,2.8c2.6,7.3,7.8,21.3,9.1,24.4c0.2,0.4,0.2,0.8,0.2,1.2
		C49.9,50.5,48.7,51.3,47.4,51.3z M40.7,36.7c-1.2-3.8-2.5-7.5-3.1-9.4c-0.2-0.7-0.4-1.1-0.7-1.1c-0.2,0-0.4,0.4-0.7,1.2
		c-0.6,1.6-3.2,9.1-3.2,9.5c0,0.2,0.1,0.2,0.3,0.2c0.8,0,2.3,0,3.7,0c1.5,0,2.9,0,3.4,0c0.2,0,0.3,0,0.3-0.2
		C40.7,36.8,40.7,36.8,40.7,36.7z"/>
	<path class="st0" d="M54.1,49.4c0.1-4.2,0.1-9,0.1-13.7c0-4,0-7.9-0.1-10.9c0,0,0-0.1,0-0.2c0-2.8,1.6-3.9,3.3-3.9
		c1.5,0,3.1,0.8,3.9,2.2c2.5,4,9.3,16.6,12.3,21.2c0.2,0.4,0.4,0.6,0.6,0.6s0.3-0.1,0.3-1.7c0-3.8-0.1-16.4-0.2-20.1
		c0-1.3,1-2.2,2.3-2.2c1.2,0,2.3,0.7,2.3,2.1c0,0,0,0,0,0.1c-0.1,2.8-0.1,6.7-0.1,10.8c0,5.1,0,10.4,0.1,13.9c0,0,0,0.1,0,0.1
		c0,2.4-1.8,3.8-3.7,3.8c-1.3,0-2.6-0.6-3.5-2C69,45,61.5,31.2,59.3,27.5c-0.2-0.2-0.4-0.8-0.6-0.8c-0.2,0-0.2,0.4-0.2,2.3
		c0,4.2,0.1,16.1,0.2,20.4c0,0,0,0,0,0.1c0,1.3-1.1,1.9-2.3,1.9S54.1,50.7,54.1,49.4L54.1,49.4z"/>
	<path class="st0" d="M84.6,36.1c0-9.1,6.6-15.6,15.5-15.6c8.9,0,15.6,6.6,15.6,15.6c0,9.4-6.7,15.6-15.6,15.6
		C91.3,51.7,84.6,45.5,84.6,36.1z M111,36.1c0-7-4.8-11.5-10.8-11.5s-10.8,4.5-10.8,11.5c0,6.9,4.8,11.4,10.8,11.4S111,43,111,36.1z
		"/>
	<path class="st0" d="M155.4,49.4c0-1.6,0-4.5,0-6.9c0-1.8,0-3.4,0-4.1c-0.1-2.4-1.4-3.3-2.8-3.3c-2.1,0-4.7,2.1-4.8,4.8
		c0,0.6,0,1.4,0,2.3c0,1.7,0,4.1,0.1,7.2c0,0,0,0,0,0.1c0,1.3-1,2.1-2,2.1c-1,0-1.9-0.7-1.9-2.1v0c0-1.6,0-4.5,0-6.9
		c0-1.8,0-3.4,0-4.1c-0.2-2.4-1.4-3.4-2.8-3.4c-2.1,0-4.6,2.1-4.7,4.8c0,0.6,0,1.4,0,2.3c0,1.7,0,4.1,0.1,7.2c0,1.7-1.1,2.2-2,2.2
		c-1,0-2.1-0.7-2.1-2.1c0,0,0,0,0-0.1c0.1-4.3,0.2-7.1,0.2-9.8c0-2,0-3.9-0.1-6.3c0,0,0,0,0-0.1c0-1.3,1.1-1.9,2-1.9s2,0.6,2,2
		c0,0.1,0,0.2,0,0.2c0,0,0.1-0.1,0.2-0.1c1.3-1.5,3.1-2.2,4.8-2.2c2.2,0,4.4,1.2,5.4,3.7c1.6-2.5,3.9-3.6,6.1-3.6
		c3.2,0,6.1,2.4,6.2,6.8c0,1.4,0.1,4.9,0.1,7.8c0,1.3,0,2.5,0,3.4c0,1.5-1,2.3-2,2.3C156.4,51.5,155.4,50.8,155.4,49.4L155.4,49.4z"
		/>
	<path class="st0" d="M173.9,51.7c-5.5,0-9.6-4.2-9.6-10.2c0-6.2,4.4-10.4,9.6-10.4c5.6,0,8.7,4.1,8.7,7.1c0,1.9-1.2,3.4-3.8,3.5
		c-1.2,0-2.1,0-9.9,0c-0.2,0-0.3,0.3-0.3,0.8c0,3.3,2.6,5.4,5.5,5.4c2.5,0,4.1-1.2,5.2-2.5c0.4-0.4,0.9-0.6,1.4-0.6
		c1.1,0,2.1,1,2.1,2.1c0,0.5-0.2,1-0.6,1.4C180.2,50.3,178,51.7,173.9,51.7z M178.4,37.6c0-0.6-0.8-2.9-4.5-2.9c-3.3,0-5,2.8-5,3.5
		c0,0.4,0.4,0.4,4.2,0.4c1.7,0,3.5,0,4.6,0C178,38.4,178.4,38,178.4,37.6z"/>
	<path class="st0" d="M201.1,50.6c-0.4-0.3-0.7-0.7-1.1-1.3c0-0.1-0.1-0.1-0.2-0.1c-0.1,0-0.2,0-0.2,0.1c-1.4,1.6-3.9,2.4-6.3,2.4
		c-4.4,0-7.1-3.2-7.1-6.3c0-2.1,1.2-4.1,3.9-5c2.8-1,6.2-1.7,6.9-1.8c0.4,0,0.7-0.5,0.7-1.4c0-0.5-0.1-2.5-2.9-2.5
		c-1.8,0-3.2,0.8-3.9,1.7c-0.4,0.5-1,0.7-1.5,0.7c-1,0-1.9-0.8-1.9-1.9c0-1.9,3.5-4.1,7.6-4.1c4.4,0,6.9,2.2,6.9,6.8
		c0,0.5,0,1-0.1,1.6c-0.1,0.6-0.2,2.1-0.2,3.3c0,0.4,0,0.7,0,0.9c0.4,3.2,1.9,3.3,2.2,3.6c0.4,0.3,0.6,0.8,0.6,1.4
		c0,1.1-0.9,2.4-2.1,2.4C202.1,51.2,201.6,51,201.1,50.6z M197.4,41.9c-6.8,0.8-7.2,2.5-7.2,3.5c0,1.2,1.1,2.5,3.1,2.5
		c3.3,0,4.7-1.7,4.7-4.5C198,42.8,197.9,41.9,197.4,41.9L197.4,41.9z"/>
	<path class="st0" d="M221.5,49.4c0-1.7,0.1-4.7,0.1-7.2c0-1.6,0-3-0.1-3.6c-0.2-2.5-1.6-3.5-3.3-3.5c-2.5,0-5.4,2.2-5.5,4.9
		c0,0.7,0,1.7,0,2.8c0,1.7,0,3.8,0.1,6.6c0,0.8-0.4,2.1-2.1,2.1c-1.1,0-2.1-0.7-2.1-2c0,0,0,0,0-0.1c0.1-3.8,0.2-6.5,0.2-8.9
		c0-2.4,0-4.5-0.1-7.2c0,0,0,0,0-0.1c0-1.2,1.2-1.8,2.2-1.8c1,0,2.1,0.6,2.1,1.9c0,0.2,0,0.3,0,0.4c0,0,0,0.1,0,0.1c0,0,0,0.1,0,0.1
		s0.1-0.1,0.2-0.2c1.5-1.6,3.6-2.4,5.7-2.4c3.4,0,6.6,2.2,6.8,6.7c0,1.5,0.1,5,0.1,8c0,1.2,0,2.4,0,3.2c0,1.5-1,2.1-2.1,2.1
		S221.5,50.7,221.5,49.4L221.5,49.4z"/>
	<path class="st0" d="M236.7,51.6c-4.9,0-7-2.8-7-4.1c0-1.1,1-1.9,2.1-1.9c0.6,0,1.2,0.2,1.6,0.8c0.6,0.7,1.6,1.4,3.3,1.4
		c2.1,0,3-1.1,3-2.1c0-1.3-0.9-2.1-5.6-4.2c-2.5-1.1-3.6-3.1-3.6-5c0-2.7,2.3-5.4,6.1-5.4c3.7,0,6.2,1.8,6.2,3.4c0,1.1-0.9,2-2,2
		c-0.5,0-1.1-0.2-1.7-0.8c-0.4-0.4-1.1-1-2.5-1c-1.4,0-2.1,0.8-2.1,1.7c0,0.6,0.4,1.3,1.3,1.8c1,0.5,2.9,1.3,4.1,2
		c2.8,1.5,3.9,3.5,3.9,5.5C243.8,48.8,240.7,51.6,236.7,51.6z"/>
	<path class="st0" d="M250.5,51.4c-1.1,0-2.8-0.5-2.8-2.8c0-2,1.7-2.7,2.8-2.7c1.3,0,2.9,1,2.9,2.7
		C253.4,49.6,252.5,51.4,250.5,51.4z"/>
	<path class="st0" d="M261,51.4c-1.1,0-2.8-0.5-2.8-2.8c0-2,1.7-2.7,2.8-2.7c1.3,0,2.9,1,2.9,2.7C263.9,49.6,263,51.4,261,51.4z"/>
	<path class="st0" d="M271.5,51.4c-1.1,0-2.8-0.5-2.8-2.8c0-2,1.7-2.7,2.8-2.7c1.3,0,2.9,1,2.9,2.7
		C274.4,49.6,273.5,51.4,271.5,51.4z"/>
</g>
<rect x="53.1" class="st1" width="3.4" height="2"/>
</svg>
