<?xml version="1.0" encoding="utf-8"?>
<!-- Generator: Adobe Illustrator 25.1.0, SVG Export Plug-In . SVG Version: 6.00 Build 0)  -->
<svg version="1.1" id="Layer_1" xmlns="http://www.w3.org/2000/svg" xmlns:xlink="http://www.w3.org/1999/xlink" x="0px" y="0px"
	 viewBox="0 0 26.6 31.6" style="enable-background:new 0 0 26.6 31.6;" xml:space="preserve">
<style type="text/css">
	.st0{fill:#CC6699;stroke:#3C3C3C;stroke-miterlimit:10;}
</style>
<g>
	<path class="st0" d="M23.7,31c-0.9,0-1.9-0.4-2.3-1.5c-0.5-1.2-1.5-4.4-2.8-8.1c-0.1-0.2-0.2-0.4-0.4-0.4c-0.6,0-2.3,0-4.1,0
		c-2.4,0-5.1,0-6,0c-0.2,0-0.4,0.1-0.5,0.4c-1,3.2-1.9,6.1-2.5,8c-0.4,1.1-1.3,1.7-2.3,1.7c-1.1,0-2.3-0.8-2.3-2
		c0-0.7,0.1-1,8.9-25.9c0.6-1.9,2.1-2.7,3.5-2.7c1.5,0,3.1,1,3.7,2.8c2.6,7.3,7.8,21.3,9.1,24.4c0.2,0.4,0.2,0.8,0.2,1.2
		C26.1,30.2,24.9,31,23.7,31z M16.9,16.4C15.7,12.6,14.5,9,13.8,7c-0.2-0.7-0.4-1.1-0.7-1.1c-0.2,0-0.4,0.4-0.7,1.2
		c-0.6,1.6-3.2,9.1-3.2,9.5c0,0.2,0.1,0.2,0.3,0.2c0.8,0,2.3,0,3.7,0c1.5,0,2.9,0,3.4,0c0.2,0,0.3,0,0.3-0.2
		C17,16.6,17,16.5,16.9,16.4z"/>
</g>
</svg>
