<svg id="Layer_1" data-name="Layer 1" xmlns="http://www.w3.org/2000/svg" viewBox="0 0 21.15 32.23"><defs><style>.cls-1{fill:#edb230;stroke:#3c3c3c;stroke-miterlimit:10;}</style></defs><path class="cls-1" d="M10.45,31.73C3.88,31.73.5,28,.5,26a2.36,2.36,0,0,1,2.34-2.3,2.16,2.16,0,0,1,1.77,1,6.93,6.93,0,0,0,5.88,2.7c4.44,0,5.4-3,5.4-4.31a5.32,5.32,0,0,0-3.06-4.52c-1.77-1-3.95-2.21-6.08-3.18C3.2,13.8,1.59,10.94,1.59,8.16,1.59,4.25,4.73.5,10.29.5S19,3.16,19,5.05a2.35,2.35,0,0,1-2.26,2.34,2.54,2.54,0,0,1-1.89-1,5.92,5.92,0,0,0-4.64-1.85C7.67,4.57,6.1,6.18,6.1,8a4.15,4.15,0,0,0,2.54,3.54c1.65.89,4.43,2.18,6.29,3.19C19,16.94,20.65,20,20.65,23,20.65,27.3,17,31.73,10.45,31.73Z"/></svg>