<svg id="Layer_1" data-name="Layer 1" xmlns="http://www.w3.org/2000/svg" viewBox="0 0 26.63 31.59"><defs><style>.cls-1{fill:#c69;stroke:#3c3c3c;stroke-miterlimit:10;}</style></defs><path class="cls-1" d="M23.67,31.05a2.38,2.38,0,0,1-2.3-1.49c-.48-1.17-1.53-4.4-2.78-8.15-.08-.24-.2-.36-.44-.36-.64,0-2.3,0-4.11,0-2.42,0-5.12,0-6,0a.51.51,0,0,0-.49.36l-2.54,8A2.29,2.29,0,0,1,2.8,31.09a2.17,2.17,0,0,1-2.3-2c0-.72.12-1.05,9-25.87A3.72,3.72,0,0,1,13,.5a4,4,0,0,1,3.75,2.78c2.58,7.25,7.82,21.28,9.15,24.42a3.22,3.22,0,0,1,.24,1.17A2.29,2.29,0,0,1,23.67,31.05ZM16.94,16.42C15.69,12.63,14.48,9,13.84,7c-.24-.73-.44-1.13-.69-1.13s-.44.36-.72,1.17c-.61,1.61-3.23,9.15-3.23,9.51,0,.16.09.24.33.24.8,0,2.29,0,3.7,0s2.87,0,3.43,0c.24,0,.32,0,.32-.16A.43.43,0,0,0,16.94,16.42Z"/></svg>