<svg id="Layer_1" data-name="Layer 1" xmlns="http://www.w3.org/2000/svg" viewBox="0 0 25.94 31.75"><defs><style>.cls-1{fill:#edb231;stroke:#3c3c3c;stroke-miterlimit:10;}</style></defs><path class="cls-1" d="M.5,29.15c.08-4.15.12-9,.12-13.66,0-4,0-7.86-.08-10.88V4.45C.54,1.63,2.11.5,3.88.5a4.85,4.85,0,0,1,4,2.18c2.54,4,9.27,16.6,12.34,21.19.24.37.44.57.56.57s.28-.12.28-1.7c0-3.78-.12-16.36-.24-20.06A2.17,2.17,0,0,1,23.11.5a2.16,2.16,0,0,1,2.33,2.1v.08c-.08,2.82-.12,6.73-.12,10.76,0,5.11,0,10.39.12,13.9v.08a3.64,3.64,0,0,1-3.66,3.83,4.13,4.13,0,0,1-3.47-2C15.49,24.76,8,11,5.78,7.31c-.16-.24-.45-.77-.65-.77S4.89,7,4.89,8.8c0,4.19.12,16.08.24,20.35v.08c0,1.29-1.12,1.9-2.29,1.9A2.1,2.1,0,0,1,.5,29.19Z"/></svg>