<svg id="Layer_1" data-name="Layer 1" xmlns="http://www.w3.org/2000/svg" viewBox="0 0 353.06 333.31"><defs><style>.cls-1{fill:none;stroke:#000;stroke-miterlimit:10;}</style></defs><path d="M31.71,100.42c2.65,11.3,8.91,19.33,23.11,19.33,14.39,0,20.19-7.57,20.19-16.66,0-9.57-4-15.56-22.72-19.65-19.86-4.36-25-12.37-25-24.65,0-15.19,11-24.17,25.72-24.17,22.12,0,27.09,15.13,27.86,23.82H72.92c-1.52-6.58-4.63-15.28-20.09-15.28-10.49,0-17.56,4.72-17.56,14.63,0,7.95,2.81,13.16,19.27,16.7,24.56,5.33,28.55,15.33,28.55,27.58,0,13.94-8.59,26.11-28.71,26.11-18.65,0-28.42-11.13-30.7-27.76Z" transform="translate(0 -18.52)"/><path d="M105.36,97.16l-9.73,29.15H87.45l30.24-89.82h9.11l31.36,89.82h-8.5L139.54,97.16Zm31.43-8.92c-9-26-13.22-38.08-14.79-44h-.1c-1.39,5.64-6.41,21.51-13.85,44Z" transform="translate(0 -18.52)"/><path d="M167,126.31V36.49h9.37c14.45,25.19,40.75,68.56,44.55,77.39h.19c-.6-12.32-.5-25.76-.5-40.29V36.49H228v89.82h-8.91c-11.32-19.22-39.82-68.72-45-79.23h-.2c.5,11.69.5,24.4.5,40.27v39Z" transform="translate(0 -18.52)"/><path d="M313.13,81.14c0,25.52-13.33,47.06-35.95,47.06-21.91,0-36-20.77-36-47.15,0-25,14.3-46.45,36.12-46.45C298.81,34.6,313.13,56.1,313.13,81.14Zm-63.67-.45c0,20,9.76,38.67,27.9,38.67,17.73,0,27.5-17.09,27.5-38,0-19.37-9.88-37.95-28.1-37.95C259.9,43.44,249.46,60.64,249.46,80.69Z" transform="translate(0 -18.52)"/><path d="M29.16,139.89H75.63v2.4H31.2v40.35H72.72V185H31.2v45.27h-2Z" transform="translate(0 -18.52)"/><path d="M147.62,183.14H104.36v44.77H151.5l-.48,2.4h-48.7V139.89h47.34v2.4h-45.3v38.46h43.26Z" transform="translate(0 -18.52)"/><path d="M177.25,139.89h24.64c20.66,0,35.7,18.41,35.7,43.38,0,28-14.26,47-35.5,47H177.25Zm2,88H201.6c21.34,0,33.85-19.8,33.85-44.39s-14.84-41.23-33.75-41.23H179.29Z" transform="translate(0 -18.52)"/><path d="M312,183.14H268.69v44.77h47.14l-.49,2.4H266.65V139.89H314v2.4h-45.3v38.46H312Z" transform="translate(0 -18.52)"/><path d="M36.63,294.45v39.86H28.88V244.49H60.57c13.65,0,23.23,7.93,23.23,24,0,10.65-3.87,18.58-12.8,21.46,5,1.71,11,6.47,11,22.06v3.8c0,7.09,0,14.83.79,18.49H74.83c-1-3.91-.79-11.16-.79-18.14v-3c0-14.43-4.35-18.72-17-18.72Zm0-8.72H58.46c11.54,0,17.34-5.22,17.34-16.8,0-10.56-5.81-15.72-16.91-15.72H36.63Z" transform="translate(0 -18.52)"/><path d="M125.19,244.49v89.82h-7.78V244.49Z" transform="translate(0 -18.52)"/><path d="M224.09,308.65C220,324,211.55,336.2,192.41,336.2c-22.45,0-35.07-20.5-35.07-46.58s14-47,35.47-47c19.6,0,28.64,13.59,31.54,28.25h-8c-3.43-10.62-9.5-19.43-23.6-19.43-16.69,0-27.1,15.92-27.1,37.85,0,21.44,10.47,38.13,27.2,38.13,13.91,0,19.36-7.91,23.42-18.75Z" transform="translate(0 -18.52)"/><path d="M264.49,305.16l-9.74,29.15h-8.18l30.24-89.82h9.11l31.37,89.82h-8.5l-10.13-29.15Zm31.43-8.92c-9-26-13.23-38.08-14.8-44H281c-1.39,5.64-6.42,21.51-13.86,44Z" transform="translate(0 -18.52)"/><text y="-18.52"/><polyline class="cls-1" points="323.36 332.81 14.36 332.81 14.36 0.5 316.79 0.5"/><path d="M318.36,0" transform="translate(0 -18.52)"/><path d="M327.36,31.24l25.34-7.13v.75c-6.91,1.95-23.07,6.56-24.69,6.88v0c2.34.61,18.39,5.54,24.69,7.3v1.08C346.33,42,329.41,47,328,47.29v0c2.85.86,18.29,5.58,24.66,7.56v.75l-25.34-7.85v-1c6.48-1.8,23.25-6.77,24.8-7.13v0c-2.05-.47-17.78-5.22-24.8-7.35Z" transform="translate(0 -18.52)"/><path d="M340.46,83.29V69.51H328v15l-.65-.15V68.79H352.7V84h-.65V69.51H341.11V83.29Z" transform="translate(0 -18.52)"/><path d="M352.7,97.43v8.17c0,4.53-2.27,7.2-6.12,7.2a5.35,5.35,0,0,1-5.61-4.65c-.47,2.34-2.16,5.65-6.52,5.65-4.64,0-7.09-3.38-7.09-8.38v-8ZM328,98.15v7.12c0,4,1.51,7.78,6.4,7.78,4.11,0,6.2-3.17,6.2-7.42V98.15Zm13.24,7.59c0,3.78,1.8,6.3,5.3,6.3,3.85,0,5.5-2.77,5.5-6.77V98.15h-10.8Z" transform="translate(0 -18.52)"/><path d="M352.7,127.83v7.67c0,7.67-5.26,12-12.13,12-7.7,0-13.21-4.21-13.21-12.06v-7.6Zm-24.69.72v6.95c0,6.77,4.57,11.23,12.52,11.23,6.59,0,11.52-4,11.52-11.34v-6.84Z" transform="translate(0 -18.52)"/><path d="M340.46,176.05V162.26H328v15l-.65-.14V161.54H352.7v15.23h-.65V162.26H341.11v13.79Z" transform="translate(0 -18.52)"/><path d="M334,188.86c-4.11.75-6.3,3.7-6.3,8,0,4.54,2.27,7.42,6,7.42,3.56,0,5.25-1.55,6.84-7.42,1.37-5.11,2.84-7.52,6.58-7.52s6,2.84,6,7.42c0,5.54-3.31,7.41-6.12,7.81v-.72c3.35-.65,5.47-2.92,5.47-7.13,0-3.92-1.76-6.62-5.25-6.62-3.28,0-4.68,1.94-5.94,6.84-1.73,6.73-4,8.09-7.49,8.09-4.14,0-6.73-3.09-6.73-8.2s2.77-8,6.95-8.75Z" transform="translate(0 -18.52)"/><path d="M352.7,219.73H327.36V219H352.7Z" transform="translate(0 -18.52)"/><path d="M327.36,254.47v-.64c.72,0,1.69,0,5.94-.08-4.32-1.44-6.3-4.42-6.3-9.1,0-7.49,5.9-10.8,12.78-10.8,7.05,0,13.28,3.6,13.28,11.12,0,5.58-2.92,8.6-6.84,9.47v-.72c3.82-1,6.19-3.89,6.19-8.79,0-6.91-5.72-10.33-12.52-10.33-6.41,0-12.24,3-12.24,10.12,0,6.12,4.06,9,9.86,9h1.87v-9.07H340v9.79Z" transform="translate(0 -18.52)"/><path d="M327.36,269.42H352.7v1.15c-6.44,4.4-22.53,15.34-24.59,16.67l-.1.07c.68-.11,7.88-.11,12-.11H352.7v.72H327.36v-1c6.23-4.21,22.32-15.12,24.73-16.77l.11-.08c-3.39.18-7.2.11-11.85.11h-13Z" transform="translate(0 -18.52)"/><path d="M340.46,318V304.17H328v15l-.65-.15V303.45H352.7v15.22h-.65v-14.5H341.11V318Z" transform="translate(0 -18.52)"/><path d="M339.78,332.84H327.36v-.75H352.7v8.35c0,4.46-2.05,7.66-6.48,7.66-3,0-5.4-1.44-6.05-5.29-.46,2.74-1.76,4.9-7.05,4.9h-.47c-3.35,0-4.61.07-5.29.32v-.79a25.29,25.29,0,0,1,5.29-.25H333c4.47,0,6.81-1.15,6.81-6.81Zm.68,0v7.06c0,4,1.26,7.45,5.72,7.45,3.68,0,5.87-2.49,5.87-6.91v-7.6Z" transform="translate(0 -18.52)"/></svg>